<svg xmlns="http://www.w3.org/2000/svg" width="108" height="92" viewBox="0 0 108 92" fill="none">
  <path d="M15.3126 51.4626C27.2302 45.7847 36.8642 36.3969 46.5516 27.5441C54.1654 20.5862 62.15 13.7109 70.5526 7.70656C72.2106 6.52177 74.553 4.13744 76.7943 5.15364C79.0153 6.16063 80.2957 8.90233 82.0511 10.5259C86.374 14.5241 90.261 19.4099 93.8151 24.1084C97.7276 29.2807 91.8604 32.1433 88.2334 35.5297C84.1135 39.3763 80.1789 43.3431 75.6786 46.7374C71.401 49.9637 67.964 54.4107 64.0481 58.0631C58.0801 63.6295 52.4981 69.5557 46.5474 75.1278C43.005 78.4448 38.9406 81.1528 35.5293 84.5876C34.334 85.7912 33.2284 87.382 31.8499 88.3842C30.7428 89.189 29.2105 86.0937 28.8163 85.5107C25.688 80.8837 20.8418 77.7185 17.7785 72.8788C15.8525 69.8359 14.5565 66.0805 12.251 63.3016C11.1505 61.975 8.39902 58.989 9.60451 57.0512C10.8353 55.0726 14.3303 54.1247 16.2366 52.7076C17.7226 51.603 19.529 50.2392 21.2202 49.4711C22.4494 48.9129 23.6561 47.9235 24.7553 47.1615C27.6483 45.156 24.5826 46.0132 22.626 46.7584" stroke="#00ADB5" stroke-opacity="0.5" stroke-width="1.66333" stroke-linecap="round" stroke-linejoin="round"/>
  <path d="M17.1333 60.5466C24.3884 65.038 30.8963 71.5377 36.5601 77.9478C36.7036 78.1102 38.082 79.0709 37.8718 79.4264C37.4661 80.113 32.7572 77.0141 32.3073 76.7036" stroke="#00ADB5" stroke-opacity="0.5" stroke-width="1.66333" stroke-linecap="round" stroke-linejoin="round"/>
  <path d="M24.3257 54.0533C30.2077 55.7377 33.7131 58.9425 38.4622 62.3714C40.5776 63.8988 42.7323 65.2772 44.631 67.0733C45.5226 67.9168 46.1576 69.0274 46.9814 69.9369C48.1105 71.1834 43.4997 68.4898 42.9566 68.1795" stroke="#00ADB5" stroke-opacity="0.5" stroke-width="1.66333" stroke-linecap="round" stroke-linejoin="round"/>
  <path d="M32.8722 49.0197C36.9884 52.7345 41.1261 56.398 45.3714 59.9635C46.9842 61.3181 48.815 62.5612 50.2079 64.1565C52.6805 66.9886 49.4423 63.3137 48.3424 62.2764" stroke="#00ADB5" stroke-opacity="0.5" stroke-width="1.66333" stroke-linecap="round" stroke-linejoin="round"/>
  <path d="M38.6394 45.4785C41.6926 47.3346 44.8817 49.1334 47.4669 51.6364C48.5274 52.6631 49.4072 53.8732 50.5409 54.8244C51.9376 55.9961 53.1612 57.363 54.5671 58.5019C56.5691 60.1236 56.8701 60.5971 54.4918 58.5617" stroke="#00ADB5" stroke-opacity="0.5" stroke-width="1.66333" stroke-linecap="round" stroke-linejoin="round"/>
  <path d="M46.0747 40.0275C49.4431 42.6636 52.5605 45.3405 55.3771 48.5562C56.6246 49.9804 57.6299 51.6244 59.213 52.7171C60.6634 53.7181 61.68 54.0073 59.9822 52.3806" stroke="#00ADB5" stroke-opacity="0.5" stroke-width="1.66333" stroke-linecap="round" stroke-linejoin="round"/>
  <path d="M53.2319 34.4723C56.1978 36.7008 59.1218 38.7351 61.4908 41.6054C62.5753 42.9194 63.4315 44.4296 64.6427 45.6416C67.1021 48.1026 65.4107 46.862 63.6316 45.1916" stroke="#00ADB5" stroke-opacity="0.5" stroke-width="1.66333" stroke-linecap="round" stroke-linejoin="round"/>
  <path d="M59.8337 28.7082C63.9975 32.6914 67.4848 37.3568 71.656 41.2912C74.4647 43.9403 70.4405 39.6952 69.7821 38.9411" stroke="#00ADB5" stroke-opacity="0.5" stroke-width="1.66333" stroke-linecap="round" stroke-linejoin="round"/>
  <path d="M67.8939 24.1259C71.3986 22.6949 75.0341 20.9893 76.9176 17.4925C77.437 16.5283 78.1061 15.6889 78.3196 14.6022C78.6127 13.1099 78.5553 13.75 77.4492 14.7158" stroke="#00ADB5" stroke-opacity="0.5" stroke-width="1.66333" stroke-linecap="round" stroke-linejoin="round"/>
  <path d="M73.5368 28.9387C76.3154 26.3603 79.4214 23.5439 81.4575 20.271C82.473 18.6385 84.4074 16.6459 81.703 19.0071" stroke="#00ADB5" stroke-opacity="0.5" stroke-width="1.66333" stroke-linecap="round" stroke-linejoin="round"/>
  <path d="M82.4446 34.343C84.9763 31.5919 87.2291 29.0332 89.5594 26.1565C90.3124 25.227 92.6061 24.021 89.8464 24.7585" stroke="#00ADB5" stroke-opacity="0.5" stroke-width="1.66333" stroke-linecap="round" stroke-linejoin="round"/>
  <path d="M80.4304 32.9529C83.0804 30.6821 86.0771 28.0383 88.1771 25.1709C88.7372 24.406 89.1682 23.554 89.6811 22.7592C90.5404 21.4279 90.5947 21.8775 89.2916 22.0142" stroke="#00ADB5" stroke-opacity="0.5" stroke-width="1.66333" stroke-linecap="round" stroke-linejoin="round"/>
  <path d="M24.2871 65.134C37.4891 59.7711 40.7465 45.2164 51.5049 36.9851C52.8137 35.9838 53.8768 34.8708 55.403 34.1777C56.4235 33.7142 57.6837 33.4924 58.6126 32.8993C59.1792 32.5376 63.8846 28.9429 60.6146 30.428" stroke="#00ADB5" stroke-opacity="0.5" stroke-width="1.66333" stroke-linecap="round" stroke-linejoin="round"/>
  <path d="M18.1405 61.2416C19.622 59.4402 20.9373 57.8983 22.8168 56.5954C23.1251 56.3817 23.6007 56.3457 23.8542 56.0602C24.3564 55.4948 25.1174 54.6682 25.3109 53.939C26.0732 51.0669 29.798 51.5979 31.7759 50.1578C33.6574 48.7878 35.4688 47.401 37.387 46.0474C39.5003 44.5561 40.4781 43.2483 42.1753 41.3375C43.7344 39.5823 45.2479 37.8068 46.8982 36.1452C48.2483 34.7857 50.3696 33.5494 51.229 31.8095C52.1988 29.8459 54.6775 27.5985 56.9085 27.9625C57.6749 28.0875 63.3055 31.3503 59.6252 29.264" stroke="#00ADB5" stroke-opacity="0.5" stroke-width="1.66333" stroke-linecap="round" stroke-linejoin="round"/>
  <path d="M30.0871 68.2621C40.0078 63.029 45.5136 51.6198 52.2143 43.0013C54.6824 39.8268 58.2094 37.7174 60.7929 34.5982C61.8979 33.264 64.3382 31.8468 61.5001 31.8698" stroke="#00ADB5" stroke-opacity="0.5" stroke-width="1.66333" stroke-linecap="round" stroke-linejoin="round"/>
  <path d="M33.6289 71.4937C42.6181 65.9672 48.374 55.6853 54.9143 47.5371C57.8897 43.8302 60.7615 40.0455 63.7736 36.3688C65.1468 34.6925 67.5412 33.6453 64.4686 35.3617" stroke="#00ADB5" stroke-opacity="0.5" stroke-width="1.66333" stroke-linecap="round" stroke-linejoin="round"/>
  <path d="M37.17 77.261C42.7794 71.7908 47.3082 65.8879 51.8979 59.5604C54.6887 55.713 57.1011 51.3883 60.3782 47.924C62.2584 45.9363 63.706 43.6088 65.4131 41.5015C66.1007 40.6526 66.5752 39.6635 67.282 38.8217C68.8739 36.9255 67.764 38.641 66.6555 39.6696" stroke="#00ADB5" stroke-opacity="0.5" stroke-width="1.66333" stroke-linecap="round" stroke-linejoin="round"/>
  <path d="M38.489 79.6582C41.2805 76.9237 45.3705 74.2918 47.2328 70.7447C47.9089 69.4569 49.582 66.3477 50.7553 65.5596C52.3063 64.5179 53.0454 62.3018 54.1744 60.9082C55.3501 59.4568 56.501 58.0405 57.7767 56.66C58.973 55.3655 59.356 53.0936 60.8369 51.9795C62.4867 50.7384 63.2894 48.8174 64.6054 47.3358C65.7444 46.0535 67.9127 44.7247 69.3257 43.7452C70.1087 43.2024 70.6555 42.4626 71.5436 42.0593C73.3435 41.2419 72.1753 41.6603 70.5277 41.5987" stroke="#00ADB5" stroke-opacity="0.5" stroke-width="1.66333" stroke-linecap="round" stroke-linejoin="round"/>
  <path d="M67.6675 25.1505C69.9768 25.7592 72.824 26.1773 74.9284 27.4358C76.2864 28.2479 77.4689 29.0633 74.9959 27.5844" stroke="#00ADB5" stroke-opacity="0.5" stroke-width="1.66333" stroke-linecap="round" stroke-linejoin="round"/>
  <path d="M70.0656 21.2957C73.3597 22.1563 75.6877 23.121 78.3739 24.8724C80.1302 26.0174 79.8484 25.7004 78.0189 24.5982" stroke="#00ADB5" stroke-opacity="0.5" stroke-width="1.66333" stroke-linecap="round" stroke-linejoin="round"/>
  <path d="M74.0618 17.4067C76.8905 18.9976 79.6348 20.8055 82.5598 22.1905C84.2801 23.0051 83.3772 22.9482 82.0493 22.3071" stroke="#00ADB5" stroke-opacity="0.5" stroke-width="1.66333" stroke-linecap="round" stroke-linejoin="round"/>
  <path d="M76.3375 14.2985C79.3118 15.6528 82.0537 17.0014 84.7922 18.705C86.041 19.4819 84.9077 19.5321 83.9604 18.9035" stroke="#00ADB5" stroke-opacity="0.5" stroke-width="1.66333" stroke-linecap="round" stroke-linejoin="round"/>
  <path d="M69.1271 23.7963C71.3743 21.1247 73.6285 18.5932 75.6744 15.8547C76.2557 15.0767 79.7962 10.7449 78.2661 12.9619" stroke="#00ADB5" stroke-opacity="0.5" stroke-width="1.66333" stroke-linecap="round" stroke-linejoin="round"/>
  <path d="M71.4876 28.4865C74.4115 25.9016 78.6251 22.4552 79.5688 18.5934C79.8466 17.4569 80.4489 16.321 81.3317 15.5392C82.227 14.7463 83.163 14.3882 81.8257 15.7246" stroke="#00ADB5" stroke-opacity="0.5" stroke-width="1.66333" stroke-linecap="round" stroke-linejoin="round"/>
  <path d="M69.143 28.3988C72.2607 25.0409 74.9253 22.7839 76.6867 18.6474C77.1441 17.5731 77.6687 16.6827 78.4196 15.8373C79.2153 14.9414 80.3575 14.1025 78.821 15.7062" stroke="#00ADB5" stroke-opacity="0.5" stroke-width="1.66333" stroke-linecap="round" stroke-linejoin="round"/>
  <path d="M80.7267 30.0526C82.1624 30.9628 83.6018 31.8063 85.0938 32.5637C85.71 32.8765 84.9478 32.2711 84.6858 32.1728" stroke="#00ADB5" stroke-opacity="0.5" stroke-width="1.66333" stroke-linecap="round" stroke-linejoin="round"/>
  <path d="M83.5242 25.5554C83.6212 25.6378 89.2652 30.4738 88.2643 29.3952" stroke="#00ADB5" stroke-opacity="0.5" stroke-width="1.66333" stroke-linecap="round" stroke-linejoin="round"/>
  <path d="M86.8768 23.8022C88.1218 25.0001 91.9348 28.5034 90.5923 27.4159" stroke="#00ADB5" stroke-opacity="0.5" stroke-width="1.66333" stroke-linecap="round" stroke-linejoin="round"/>
  <path d="M79.0588 31.9626C81.122 30.0412 85.647 26.2346 86.7556 23.2813C87.1925 22.1174 89.1938 20.6219 87.3117 22.222" stroke="#00ADB5" stroke-opacity="0.5" stroke-width="1.66333" stroke-linecap="round" stroke-linejoin="round"/>
  <path d="M79.3192 32.5356C79.5151 32.6925 83.4614 36.9429 84.303 34.8819C84.7325 33.83 85.2919 32.4598 86.3456 31.8799C88.1942 30.8626 88.5354 27.6587 90.4278 26.7993C92.5746 25.8243 92.374 24.1893 90.3748 23.6094C89.5893 23.3815 90.2089 21.8336 89.3931 21.9553C88.6464 22.0666 88.2509 21.7909 87.4161 21.944" stroke="#00ADB5" stroke-opacity="0.5" stroke-width="1.66333" stroke-linecap="round" stroke-linejoin="round"/>
  <path d="M67.4074 24.5773C68.7609 27.1637 69.0169 28.1014 71.2007 29.1801C71.7901 29.4712 72.5596 29.0674 73.0069 29.2945C73.892 29.7439 75.6413 29.7533 76.302 28.9377C77.6306 27.2976 78.1196 26.2391 80.155 25.2415C81.4392 24.6122 82.472 23.1272 83.0662 21.8963C83.7193 20.5435 84.8954 19.524 85.5848 18.166C85.8784 17.5877 83.5086 16.0983 83.4872 15.098C83.4811 14.8143 80.6673 14.8058 80.1991 14.5681C79.6318 14.2801 79.3718 13.8742 79.0996 13.2748C78.702 12.3993 77.9969 13.4864 76.9285 13.5694" stroke="#00ADB5" stroke-opacity="0.5" stroke-width="1.66333" stroke-linecap="round" stroke-linejoin="round"/>
  <path d="M20.5385 57.3868C23.7353 58.6019 26.5231 60.1686 29.4012 61.9025C31.9 63.4079 34.7238 64.2099 37.2068 65.6691C38.9744 66.7078 40.8089 69.0793 42.1135 70.6369C42.5481 71.1559 42.8728 71.6415 43.181 72.2264C43.8883 73.5684 43.1525 70.3241 43.0776 69.9686" stroke="#00ADB5" stroke-opacity="0.5" stroke-width="1.66333" stroke-linecap="round" stroke-linejoin="round"/>
  <path d="M51.4087 32.9954C52.2952 33.9261 55.8849 39.0647 55.1768 35.2023" stroke="#00ADB5" stroke-opacity="0.5" stroke-width="1.66333" stroke-linecap="round" stroke-linejoin="round"/>
</svg>