<svg xmlns="http://www.w3.org/2000/svg" width="69" height="58" viewBox="0 0 69 58" fill="none">
<path d="M7.8501 38.8779C11.5541 30.1439 10.0371 22.5334 10.0371 13.4821C10.0371 11.7213 9.71761 6.35771 11.568 5.39776C14.4862 3.88384 17.2131 2.87365 20.6562 2.87365C22.9452 2.87365 25.245 2.93959 27.533 2.87365C29.8214 2.80769 32.038 1.87683 34.3006 1.59969C38.5103 1.08403 42.8888 1.80209 47.0459 1.80209C50.3465 1.80209 53.7611 2.23071 56.9359 2.23071C57.4996 2.23071 59.7976 2.49947 60.1678 2.82602C61.301 3.82544 60.9765 5.4282 61.8688 6.30263" stroke="#00ADB5" stroke-opacity="0.5" stroke-width="1.66333" stroke-linecap="round" stroke-linejoin="round"/>
<path d="M61.651 7.0766C61.7951 9.65401 61.8491 13.2708 62.9095 15.7893C63.5967 17.4213 63.0488 19.5933 63.1878 21.3315C63.4548 24.6682 62.9579 27.9204 62.9579 31.1575C62.9579 35.5 63.1757 39.7868 63.1757 44.1056C63.1757 47.8124 59.5539 47.1917 56.6896 46.671C54.2152 46.2211 50.8947 47.1232 48.3157 47.155C43.3405 47.2164 38.3419 47.5906 33.3589 47.5906C29.1973 47.5906 26.1069 46.3821 22.2745 44.9284C20.228 44.1522 18.9909 44.3234 16.7927 44.3234C14.7108 44.3234 12.9987 43.9979 10.9116 44.6501C9.69061 45.0317 7.50394 44.7023 6.80942 43.4521C5.97662 41.9531 7.63228 41.303 7.63228 40.0759C7.63228 39.0457 7.50278 36.0994 7.8501 38.8779" stroke="#00ADB5" stroke-opacity="0.5" stroke-width="1.66333" stroke-linecap="round" stroke-linejoin="round"/>
<path d="M32.6812 12.7398C32.6812 12.7398 33.5525 13.1755 34.4238 14.0467C35.295 14.7002 37.1291 14.3735 38.6712 14.3735C39.4827 14.3735 40.3396 13.7409 41.0672 13.4175C42.5412 12.7624 41.6621 13.9946 41.3092 14.7002C40.9187 15.4813 41.3647 16.9336 42.0716 17.423C43.2379 18.2304 44.3918 17.5335 45.5325 16.9631C46.006 16.7263 45.876 16.6165 46.0226 16.9389C46.2213 17.3762 46.1859 18.0107 46.1859 18.4878C46.1859 19.5737 46.1146 21.3778 45.5325 22.3238C44.7666 23.5683 43.9928 24.3738 42.7613 25.2886C41.5448 26.1923 39.9374 27.7693 38.3203 27.7693C35.1602 27.7693 31.806 27.0806 30.2247 24.0059C29.5545 22.7026 28.3249 21.6354 28.3249 20.1456C28.3249 18.9026 27.9136 17.4131 28.3249 16.2249C28.8234 14.7846 30.0674 13.4175 29.6318 13.4175C29.8539 13.481 31.81 12.3042 32.6812 12.7398Z" stroke="#00ADB5" stroke-opacity="0.5" stroke-width="1.66333" stroke-linecap="round" stroke-linejoin="round"/>
<path d="M36.2753 11.9775C37.5007 11.5239 40.2996 10.5737 40.9584 9.0914C41.4675 7.94586 39.7847 7.73004 38.8891 7.73004C37.8029 7.73004 36.5158 9.23116 36.2269 10.1805C36.0662 10.7084 35.9135 11.2487 35.755 11.7839C35.6785 12.0418 35.7806 12.2289 35.8336 12.4676C35.874 12.6494 37.5358 11.7769 37.4733 11.527" stroke="#00ADB5" stroke-opacity="0.5" stroke-width="1.66333" stroke-linecap="round" stroke-linejoin="round"/>
<path d="M57.8405 36.4866L10.0586 37.536C4.95706 37.6481 0.879883 41.8158 0.879883 46.9186C0.879883 52.1016 5.0816 56.3034 10.2647 56.3034H58.0581C63.531 56.3034 67.9677 51.8667 67.9677 46.3938C67.9677 40.8357 63.3972 36.3645 57.8405 36.4866Z" fill="#00ADB5" fill-opacity="0.5" stroke="#00ADB5" stroke-opacity="0.5" stroke-width="1.66333"/>
<path d="M20.6221 37.2729C21.3455 38.3946 21.97 39.7408 22.8001 40.7783C23.2176 41.3002 23.1506 41.1941 23.96 40.8943C25.3111 40.3939 26.8419 40.7526 28.2516 40.7526C29.4891 40.7526 30.9279 40.1065 32.1307 40.4304C33.5241 40.8055 35.1668 40.0893 36.5383 40.0566C38.1909 40.0173 39.7663 40.1726 41.4098 40.1726C42.4007 40.1726 43.3667 39.5927 44.2838 39.5927C44.8159 39.5927 46.3325 40.0144 46.3716 39.0385C46.3906 38.5631 46.6036 38.1014 46.6036 37.6209C46.6036 36.971 46.2146 37.2524 45.5597 36.9249" stroke="#00ADB5" stroke-opacity="0.5" stroke-width="1.66333" stroke-linecap="round" stroke-linejoin="round"/>
</svg>